# xmcd
#
# Track frame offsets: 
#        150
#        14980
#        25430
#        39000
#        57277
#        72257
#        91050
#        111022
#        126487
#        138845
#        152600
#        164065
#        177460
#        181425
#
# Disc length: 2548 seconds
#
# Revision: 0
# Processed by: cddbd v1.5.2PL0 Copyright (c) Steve Scherf et al.
# Submitted via: ExactAudioCopyFreeDBPlugin 1.0
#
DISCID=c209f20e
DTITLE=Fábio Stella - Meu Jovem Amigo
DYEAR=2007
DGENRE=Soul
TTITLE0=Meu Jovem Amigo
TTITLE1=Preciso Urgentemente Falar com Cassiano
TTITLE2=Inolvidable
TTITLE3=Stella
TTITLE4=Reggae Man
TTITLE5=Antes Que Eu Vá
TTITLE6=As Aventuras de um Certo Capitão Blue
TTITLE7=Nossos Corações
TTITLE8=Cavaleiros Andantes
TTITLE9=A Menina e o Mar
TTITLE10=Tentando Ser Feliz
TTITLE11=Socorro Nosso Amor Está Morrendo
TTITLE12=Rio Sampa Salvador
TTITLE13=Risos
EXTD=
EXTT0=
EXTT1=
EXTT2=
EXTT3=
EXTT4=
EXTT5=
EXTT6=
EXTT7=
EXTT8=
EXTT9=
EXTT10=
EXTT11=
EXTT12=
EXTT13=
PLAYORDER=
